<?xml version="1.0" encoding="utf-8"?>
<svg viewBox="0 -28 512.00002 512" xmlns="http://www.w3.org/2000/svg">
  <path d="M 471.383 44.578 C 444.879 15.832 408.512 0 368.973 0 C 339.418 0 312.352 9.344 288.523 27.77 C 276.5 37.07 265.605 48.449 256 61.73 C 246.398 48.453 235.5 37.07 223.473 27.77 C 199.648 9.344 172.582 0 143.027 0 C 103.488 0 67.117 15.832 40.613 44.578 C 14.426 72.988 0 111.801 0 153.871 C 0 197.172 16.137 236.809 50.781 278.613 C 81.773 316.008 126.316 353.969 177.898 397.926 C 195.512 412.938 215.477 429.953 236.207 448.078 C 241.684 452.875 248.711 459.308 256 459.308 C 263.285 459.308 270.316 452.875 275.785 448.086 C 296.516 429.957 316.492 412.934 334.113 397.914 C 385.688 353.965 430.23 316.008 461.223 278.609 C 495.867 236.809 512 197.172 512 153.867 C 512 111.801 497.574 72.988 471.383 44.578 Z M 471.383 44.578"/>
</svg>