<?xml version="1.0" encoding="UTF-8" standalone="no"?>
<svg
   xmlns:dc="http://purl.org/dc/elements/1.1/"
   xmlns:cc="http://creativecommons.org/ns#"
   xmlns:rdf="http://www.w3.org/1999/02/22-rdf-syntax-ns#"
   xmlns:svg="http://www.w3.org/2000/svg"
   xmlns="http://www.w3.org/2000/svg"
   viewBox="0 0 1052.8933 378.42667"
   height="378.42667"
   width="1052.8933"
   xml:space="preserve"
   id="svg2"
   version="1.1"><metadata
     id="metadata8"><rdf:RDF><cc:Work
         rdf:about=""><dc:format>image/svg+xml</dc:format><dc:type
           rdf:resource="http://purl.org/dc/dcmitype/StillImage" /></cc:Work></rdf:RDF></metadata><defs
     id="defs6" /><g
     transform="matrix(1.3333333,0,0,-1.3333333,0,378.42667)"
     id="g10"><g
       transform="scale(0.1)"
       id="g12"><path
         id="path14"
         style="fill:#231f20;fill-opacity:1;fill-rule:nonzero;stroke:none"
         d="m 2822.98,915.559 h -401.83 v 208.551 h 401.83 c 76.3,0 111.91,-40.69 111.91,-101.73 0,-61.04 -30.52,-106.821 -111.91,-106.821 z m 317.91,129.711 c 0,152.6 -73.75,272.13 -289.93,272.13 H 2215.15 V 399.289 h 206 v 322.992 h 368.77 c 106.82,0 134.79,-30.519 134.79,-137.332 v -185.66 h 206.01 V 618 c 0,109.109 -38.7,173.102 -124.66,194.879 89.42,30.223 134.83,116.699 134.83,232.391 z M 5368.76,684.141 c 0,-178.032 -96.64,-284.852 -310.27,-284.852 H 4437.94 V 592.57 h 612.92 c 78.84,0 111.9,33.071 111.9,91.571 0,55.941 -33.06,86.461 -111.9,86.461 h -371.31 c -221.27,0 -292.48,139.878 -292.48,274.668 0,134.79 71.21,272.13 292.48,272.13 h 605.29 v -193.29 h -595.12 c -66.12,0 -96.64,-27.97 -96.64,-81.38 0,-50.871 30.52,-78.839 96.64,-78.839 h 368.77 c 213.63,0 310.27,-116.993 310.27,-279.75 z M 4020.85,1317.4 h 206 V 399.289 h -577.31 c -264.5,0 -338.25,73.75 -338.25,338.262 V 1317.4 h 206 V 737.551 c 0,-117 25.43,-144.981 132.25,-144.981 h 371.31 z m 0,701.93 h -503.56 v 81.38 c 0,104.28 12.72,144.97 132.25,144.97 h 371.31 z m -709.56,81.38 v -579.85 h 206 v 307.73 h 503.56 v -307.73 h 206 v 918.1 h -577.31 c -259.41,0 -338.25,-71.21 -338.25,-338.25 z M 6416.57,684.141 c 0,-178.032 -96.64,-284.852 -310.27,-284.852 H 5531.53 V 592.57 h 567.14 c 78.84,0 111.9,33.071 111.9,91.571 0,55.941 -33.06,86.461 -111.9,86.461 h -345.88 c -221.26,0 -292.47,139.878 -292.47,274.668 0,134.79 71.21,272.13 292.47,272.13 h 554.42 v -193.29 h -544.25 c -66.12,0 -96.64,-27.97 -96.64,-81.38 0,-50.871 30.52,-78.839 96.64,-78.839 h 343.34 c 213.63,0 310.27,-116.993 310.27,-279.75 z M 7896.74,2438.96 v -918.1 h -68.67 c -127.16,0 -180.57,30.51 -274.67,147.51 l -373.86,464.92 v -612.43 h -198.37 v 918.1 h 68.67 c 127.16,0 180.57,-30.51 274.66,-147.5 l 373.86,-464.93 v 612.43 z M 7690.73,1124.11 V 897.762 h -503.56 v 81.386 c 0,104.272 12.72,144.962 132.25,144.962 z m -371.31,193.29 c -259.41,0 -338.25,-71.21 -338.25,-338.252 V 399.289 h 206 V 707.02 h 503.56 V 399.289 h 206.01 V 1317.4 Z m -734.99,0 h 206 V 399.289 h -206 z m 0,1121.56 h 206 v -918.1 h -206 z m -4173.45,-918.1 h -195.83 v 918.1 h 71.21 c 73.76,0 116.99,-15.26 178.03,-73.75 l 208.55,-200.92 208.54,200.92 c 61.04,58.49 104.27,73.75 178.03,73.75 h 71.21 v -918.1 h -195.83 v 640.27 l -261.95,-243.53 -261.96,243.53 z m 2207.53,724.82 h 350.96 c 106.82,0 132.25,-27.98 132.25,-144.97 v -241.6 c 0,-116.99 -25.43,-144.97 -132.25,-144.97 h -350.96 z m 689.22,-386.57 v 241.6 c 0,264.5 -73.76,338.25 -338.26,338.25 h -556.96 v -918.1 h 556.96 c 264.5,0 338.26,76.29 338.26,338.25 z M 198.371,2639.88 H 1617.5 V 198.379 H 198.371 Z M 0,0.0117188 H 1815.87 V 2838.25 H 0 Z M 1213.12,1317.4 h 206 V 399.289 H 760.426 c -264.496,0 -363.68,99.18 -363.68,363.68 V 1317.4 h 206 V 757.891 c 0,-117 45.777,-165.321 152.594,-165.321 h 457.78 z m 4249.74,541.71 v 241.6 c 0,264.5 73.75,338.25 338.25,338.25 h 467.95 v -193.28 h -478.12 c -106.82,0 -122.08,-17.8 -122.08,-134.79 v -30.52 h 501.02 v -190.74 h -501.02 v -40.7 c 0,-116.99 15.26,-134.79 122.08,-134.79 h 511.19 v -193.28 h -501.02 c -264.5,0 -338.25,76.29 -338.25,338.25 z M 1111.39,2037.13 H 602.746 v 208.55 h 508.644 c 76.3,0 111.9,-40.69 111.9,-101.73 0,-61.04 -30.51,-106.82 -111.9,-106.82 z m 317.9,129.71 c 0,152.59 -73.75,272.12 -289.92,272.12 H 396.746 v -918.1 h 206 v 322.99 h 475.584 c 106.82,0 134.79,-30.52 134.79,-137.34 v -185.65 h 206 v 218.72 c 0,109.09 -38.7,173.09 -124.66,194.86 89.43,30.23 134.83,116.7 134.83,232.4" /></g></g></svg>